<svg xmlns="http://www.w3.org/2000/svg" width="1024" height="1024" viewBox="0 0 1024 1024" version="1.1"><path d="M 539.411 98 C 539.411 107.625, 539.561 111.563, 539.745 106.750 C 539.928 101.937, 539.928 94.062, 539.745 89.250 C 539.561 84.438, 539.411 88.375, 539.411 98 M 482.409 98.500 C 482.408 107.850, 482.558 111.810, 482.743 107.299 C 482.928 102.789, 482.929 95.139, 482.745 90.299 C 482.562 85.460, 482.410 89.150, 482.409 98.500 M 532.432 122 C 532.500 128.500, 532.500 128.500, 540.500 128.561 C 548.500 128.621, 548.500 128.621, 540.795 128.271 C 533.090 127.921, 533.090 127.921, 532.726 121.710 C 532.363 115.500, 532.363 115.500, 532.432 122 M 447.452 118.266 C 447.184 118.962, 447.094 131.449, 447.250 146.016 C 447.535 172.500, 447.535 172.500, 447.767 145.320 C 448 118.139, 448 118.139, 450.250 117.706 C 452.500 117.272, 452.500 117.272, 450.219 117.136 C 448.964 117.061, 447.719 117.570, 447.452 118.266 M 473.310 122.500 C 473.315 125.800, 473.502 127.029, 473.725 125.232 C 473.947 123.435, 473.943 120.735, 473.715 119.232 C 473.486 117.729, 473.304 119.200, 473.310 122.500 M 480.750 162.744 C 489 163.081, 489 163.081, 489 169.980 C 489 176.879, 489 176.879, 485.250 177.272 C 481.500 177.664, 481.500 177.664, 485.750 177.832 C 490 178, 490 178, 490 170 C 490 162, 490 162, 481.250 162.204 C 472.500 162.407, 472.500 162.407, 480.750 162.744 M 555.250 171.735 C 557.862 171.941, 562.138 171.941, 564.750 171.735 C 567.362 171.529, 565.225 171.360, 560 171.360 C 554.775 171.360, 552.638 171.529, 555.250 171.735 M 554.086 190.122 C 554 194.744, 554 194.744, 558.134 195.405 C 560.407 195.769, 562.462 195.871, 562.701 195.632 C 562.940 195.394, 561.273 194.884, 558.999 194.500 C 556.170 194.022, 555.022 193.385, 555.367 192.485 C 555.645 191.761, 555.490 189.894, 555.022 188.335 C 554.258 185.788, 554.163 185.970, 554.086 190.122 M 508.500 194.944 C 517.850 195.250, 524.825 195.772, 524 196.104 C 523.175 196.437, 523.625 196.517, 525 196.283 C 526.375 196.050, 527.891 195.477, 528.369 195.011 C 528.846 194.544, 520.746 194.214, 510.369 194.276 C 491.500 194.389, 491.500 194.389, 508.500 194.944 M 456 211 C 443.500 211.595, 443.500 211.595, 455.691 211.797 C 462.967 211.918, 468.131 211.597, 468.500 211 C 468.840 210.450, 468.979 210.091, 468.809 210.203 C 468.639 210.314, 462.875 210.673, 456 211 M 506.818 211.749 C 519.093 211.908, 538.893 211.908, 550.818 211.749 C 562.743 211.589, 552.700 211.459, 528.500 211.459 C 504.300 211.460, 494.543 211.590, 506.818 211.749 M 635.420 323.500 C 635.419 334.500, 635.565 339.136, 635.745 333.803 C 635.924 328.470, 635.925 319.470, 635.746 313.803 C 635.568 308.136, 635.421 312.500, 635.420 323.500 M 792.419 323 C 792.419 333.725, 792.566 338.113, 792.746 332.750 C 792.925 327.387, 792.925 318.613, 792.746 313.250 C 792.566 307.887, 792.419 312.275, 792.419 323 M 230.328 313.500 C 230.333 317.350, 230.513 318.802, 230.730 316.728 C 230.946 314.653, 230.943 311.503, 230.722 309.728 C 230.501 307.952, 230.324 309.650, 230.328 313.500 M 525.500 352.176 C 521.100 352.668, 507.600 353.430, 495.500 353.868 C 473.500 354.665, 473.500 354.665, 489.202 354.833 C 503.005 354.980, 538.756 352.577, 539.908 351.425 C 540.503 350.831, 534.908 351.122, 525.500 352.176 M 743.750 366.732 C 746.087 366.943, 749.913 366.943, 752.250 366.732 C 754.587 366.522, 752.675 366.349, 748 366.349 C 743.325 366.349, 741.413 366.522, 743.750 366.732 M 560 379 C 547.500 379.595, 547.500 379.595, 559.691 379.797 C 566.967 379.918, 572.131 379.597, 572.500 379 C 572.840 378.450, 572.979 378.091, 572.809 378.203 C 572.639 378.314, 566.875 378.673, 560 379 M 467.250 379.748 C 477.013 379.912, 492.988 379.912, 502.750 379.748 C 512.513 379.585, 504.525 379.451, 485 379.451 C 465.475 379.451, 457.488 379.585, 467.250 379.748 M 198.750 391.723 C 200.537 391.945, 203.463 391.945, 205.250 391.723 C 207.037 391.502, 205.575 391.320, 202 391.320 C 198.425 391.320, 196.963 391.502, 198.750 391.723 M 370.470 391.736 C 385.942 392.050, 385.942 392.050, 386.265 404.775 C 386.587 417.500, 386.587 417.500, 386.544 404.500 C 386.500 391.500, 386.500 391.500, 370.749 391.461 C 354.998 391.421, 354.998 391.421, 370.470 391.736 M 481.296 391.744 C 485.583 391.932, 492.333 391.931, 496.296 391.742 C 500.258 391.552, 496.750 391.399, 488.500 391.400 C 480.250 391.401, 477.008 391.556, 481.296 391.744 M 772.952 391.733 C 785.906 392.057, 785.906 392.057, 786.287 398.279 C 786.669 404.500, 786.669 404.500, 786.584 398 C 786.500 391.500, 786.500 391.500, 773.249 391.455 C 759.997 391.409, 759.997 391.409, 772.952 391.733 M 811.250 391.746 C 817.163 391.923, 826.837 391.923, 832.750 391.746 C 838.663 391.569, 833.825 391.425, 822 391.425 C 810.175 391.425, 805.337 391.569, 811.250 391.746 M 269.452 428 C 269.452 448.075, 269.585 456.288, 269.749 446.250 C 269.912 436.213, 269.912 419.788, 269.749 409.750 C 269.585 399.713, 269.452 407.925, 269.452 428 M 312.385 404 C 312.385 410.875, 312.545 413.688, 312.740 410.250 C 312.936 406.813, 312.936 401.188, 312.740 397.750 C 312.545 394.313, 312.385 397.125, 312.385 404 M 325.482 496 C 325.482 553.475, 325.602 576.987, 325.750 548.250 C 325.897 519.512, 325.897 472.487, 325.750 443.750 C 325.602 415.012, 325.482 438.525, 325.482 496 M 709.310 397.500 C 709.315 400.800, 709.502 402.029, 709.725 400.232 C 709.947 398.435, 709.943 395.735, 709.715 394.232 C 709.486 392.729, 709.304 394.200, 709.310 397.500 M 792.479 482 C 792.479 531.775, 792.601 552.138, 792.750 527.250 C 792.899 502.363, 792.899 461.638, 792.750 436.750 C 792.601 411.863, 792.479 432.225, 792.479 482 M 589.310 405.500 C 589.315 408.800, 589.502 410.029, 589.725 408.232 C 589.947 406.435, 589.943 403.735, 589.715 402.232 C 589.486 400.729, 589.304 402.200, 589.310 405.500 M 433.381 404.500 C 433.500 408.500, 433.500 408.500, 450.157 409 C 459.318 409.275, 466.604 409.163, 466.348 408.750 C 466.092 408.337, 458.736 408, 450.001 408 C 434.121 408, 434.121 408, 433.691 404.250 C 433.262 400.500, 433.262 400.500, 433.381 404.500 M 521.768 414.725 C 523.565 414.947, 526.265 414.943, 527.768 414.715 C 529.271 414.486, 527.800 414.304, 524.500 414.310 C 521.200 414.315, 519.971 414.502, 521.768 414.725 M 534.083 414.367 C 535.050 415.218, 544 415.679, 544 414.877 C 544 414.395, 541.675 414, 538.833 414 C 535.992 414, 533.854 414.165, 534.083 414.367 M 168.641 418.210 C 168.303 419.470, 168.091 423.425, 168.168 427 C 168.310 433.500, 168.310 433.500, 168.995 425 C 169.719 416.009, 169.639 414.482, 168.641 418.210 M 234.223 432.219 C 234 448.938, 234 448.938, 221.750 449.253 C 209.500 449.568, 209.500 449.568, 221.781 449.784 C 231.048 449.947, 234.184 449.683, 234.558 448.710 C 234.830 448, 234.916 440.238, 234.749 431.460 C 234.445 415.500, 234.445 415.500, 234.223 432.219 M 360.250 419.745 C 365.063 419.928, 372.938 419.928, 377.750 419.745 C 382.563 419.561, 378.625 419.411, 369 419.411 C 359.375 419.411, 355.438 419.561, 360.250 419.745 M 723.287 419.740 C 726.469 419.939, 731.419 419.937, 734.287 419.736 C 737.154 419.535, 734.550 419.372, 728.500 419.374 C 722.450 419.376, 720.104 419.541, 723.287 419.740 M 771.287 419.740 C 774.469 419.939, 779.419 419.937, 782.287 419.736 C 785.154 419.535, 782.550 419.372, 776.500 419.374 C 770.450 419.376, 768.104 419.541, 771.287 419.740 M 826.750 419.744 C 831.288 419.929, 838.712 419.929, 843.250 419.744 C 847.788 419.559, 844.075 419.407, 835 419.407 C 825.925 419.407, 822.212 419.559, 826.750 419.744 M 209.320 426 C 209.320 429.575, 209.502 431.038, 209.723 429.250 C 209.945 427.462, 209.945 424.538, 209.723 422.750 C 209.502 420.962, 209.320 422.425, 209.320 426 M 195.233 495.691 C 195.105 537.046, 195.338 571.091, 195.750 571.346 C 196.430 571.766, 196.422 517.827, 195.732 447.500 C 195.586 432.650, 195.362 454.336, 195.233 495.691 M 710.365 444.500 C 710.368 450, 710.536 452.122, 710.738 449.216 C 710.941 446.311, 710.939 441.811, 710.734 439.216 C 710.528 436.622, 710.363 439, 710.365 444.500 M 495.750 437.723 C 497.538 437.945, 500.462 437.945, 502.250 437.723 C 504.038 437.502, 502.575 437.320, 499 437.320 C 495.425 437.320, 493.962 437.502, 495.750 437.723 M 665.176 440.500 C 665.143 441.600, 665.488 444.300, 665.943 446.500 C 666.638 449.863, 666.769 450.022, 666.767 447.500 C 666.763 443.997, 665.269 437.425, 665.176 440.500 M 711.385 467 C 711.385 473.875, 711.545 476.688, 711.740 473.250 C 711.936 469.813, 711.936 464.188, 711.740 460.750 C 711.545 457.313, 711.385 460.125, 711.385 467 M 168.805 512.750 C 168.637 542.862, 168.760 569.075, 169.078 571 C 169.395 572.925, 169.754 548.288, 169.875 516.250 C 169.996 484.212, 169.874 458, 169.603 458 C 169.332 458, 168.973 482.637, 168.805 512.750 M 352.360 470 C 352.360 475.225, 352.529 477.363, 352.735 474.750 C 352.941 472.137, 352.941 467.863, 352.735 465.250 C 352.529 462.637, 352.360 464.775, 352.360 470 M 433.250 462.735 C 435.863 462.941, 440.137 462.941, 442.750 462.735 C 445.363 462.529, 443.225 462.360, 438 462.360 C 432.775 462.360, 430.637 462.529, 433.250 462.735 M 581.280 462.736 C 583.909 462.943, 587.959 462.940, 590.280 462.731 C 592.601 462.521, 590.450 462.352, 585.500 462.355 C 580.550 462.358, 578.651 462.530, 581.280 462.736 M 568.397 487 C 568.397 494.975, 568.553 498.238, 568.743 494.250 C 568.932 490.262, 568.932 483.738, 568.743 479.750 C 568.553 475.762, 568.397 479.025, 568.397 487 M 454.400 488.500 C 454.401 496.750, 454.556 499.992, 454.744 495.704 C 454.932 491.417, 454.931 484.667, 454.742 480.704 C 454.552 476.742, 454.399 480.250, 454.400 488.500 M 375.382 491.500 C 375.384 498.100, 375.546 500.670, 375.741 497.211 C 375.937 493.752, 375.936 488.352, 375.738 485.211 C 375.540 482.070, 375.380 484.900, 375.382 491.500 M 712.397 499 C 712.397 506.975, 712.553 510.238, 712.743 506.250 C 712.932 502.262, 712.932 495.738, 712.743 491.750 C 712.553 487.762, 712.397 491.025, 712.397 499 M 819.015 508.750 C 819.026 509.957, 819.270 510.123, 819.803 509.285 C 820.314 508.480, 824.446 507.961, 832.038 507.748 C 843.500 507.428, 843.500 507.428, 831.250 507.214 C 820.164 507.020, 819.001 507.166, 819.015 508.750 M 269.460 552 C 269.460 576.475, 269.590 586.488, 269.749 574.250 C 269.908 562.013, 269.908 541.988, 269.749 529.750 C 269.590 517.513, 269.460 527.525, 269.460 552 M 312.370 518 C 312.370 523.775, 312.535 526.138, 312.737 523.250 C 312.939 520.362, 312.939 515.638, 312.737 512.750 C 312.535 509.863, 312.370 512.225, 312.370 518 M 713.400 533.500 C 713.401 541.750, 713.556 544.992, 713.744 540.704 C 713.932 536.417, 713.931 529.667, 713.742 525.704 C 713.552 521.742, 713.399 525.250, 713.400 533.500 M 494.349 541 C 494.349 545.675, 494.522 547.587, 494.732 545.250 C 494.943 542.913, 494.943 539.087, 494.732 536.750 C 494.522 534.413, 494.349 536.325, 494.349 541 M 208.985 556 C 208.500 571.500, 208.500 571.500, 203 572.087 C 197.500 572.674, 197.500 572.674, 202.628 572.837 C 205.948 572.943, 208.160 572.512, 208.905 571.615 C 209.689 570.670, 209.962 565.495, 209.762 555.365 C 209.470 540.500, 209.470 540.500, 208.985 556 M 234.413 558.500 C 234.414 568.400, 234.564 572.315, 234.746 567.199 C 234.928 562.084, 234.927 553.984, 234.744 549.199 C 234.561 544.415, 234.412 548.600, 234.413 558.500 M 714.180 561.691 C 714.081 568.946, 714.337 575.092, 714.750 575.349 C 715.163 575.605, 715.380 571.695, 715.234 566.658 C 714.752 550.117, 714.363 548.283, 714.180 561.691 M 468.522 562.522 C 468.124 568.357, 468.014 573.347, 468.277 573.610 C 468.540 573.873, 469.081 569.314, 469.478 563.478 C 469.876 557.643, 469.986 552.653, 469.723 552.390 C 469.460 552.127, 468.919 556.686, 468.522 562.522 M 792.320 594 C 792.320 597.575, 792.502 599.038, 792.723 597.250 C 792.945 595.462, 792.945 592.538, 792.723 590.750 C 792.502 588.962, 792.320 590.425, 792.320 594 M 493.310 610.500 C 493.315 613.800, 493.502 615.029, 493.725 613.232 C 493.947 611.435, 493.943 608.735, 493.715 607.232 C 493.486 605.729, 493.304 607.200, 493.310 610.500 M 492.336 627 C 492.336 631.125, 492.513 632.813, 492.728 630.750 C 492.944 628.688, 492.944 625.313, 492.728 623.250 C 492.513 621.188, 492.336 622.875, 492.336 627 M 256.750 626.745 C 261.837 626.927, 270.162 626.927, 275.250 626.745 C 280.337 626.564, 276.175 626.415, 266 626.415 C 255.825 626.415, 251.662 626.564, 256.750 626.745 M 376.728 626.722 C 378.503 626.943, 381.653 626.946, 383.728 626.730 C 385.802 626.513, 384.350 626.333, 380.500 626.328 C 376.650 626.324, 374.952 626.501, 376.728 626.722 M 635 631.505 C 635 637.010, 635 637.010, 733.250 636.755 C 831.500 636.500, 831.500 636.500, 831.802 631.250 C 832.105 626, 832.105 626, 814.802 626.224 C 797.500 626.448, 797.500 626.448, 814.250 626.748 C 831 627.048, 831 627.048, 831 631.524 C 831 636, 831 636, 733.500 636 C 636 636, 636 636, 636 631.506 C 636 627.013, 636 627.013, 710.250 626.750 C 784.500 626.487, 784.500 626.487, 709.750 626.243 C 635 626, 635 626, 635 631.505 M 490.986 640.704 C 490.719 644.116, 490.863 646.543, 491.307 646.097 C 491.751 645.651, 491.970 642.859, 491.793 639.893 C 491.472 634.500, 491.472 634.500, 490.986 640.704 M 206.250 636.748 C 213.813 636.917, 226.188 636.917, 233.750 636.748 C 241.313 636.578, 235.125 636.439, 220 636.439 C 204.875 636.439, 198.688 636.578, 206.250 636.748 M 375.776 636.733 C 378.128 636.945, 381.728 636.942, 383.776 636.727 C 385.824 636.512, 383.900 636.339, 379.500 636.343 C 375.100 636.346, 373.424 636.522, 375.776 636.733 M 289.250 649.728 C 291.313 649.944, 294.688 649.944, 296.750 649.728 C 298.813 649.513, 297.125 649.336, 293 649.336 C 288.875 649.336, 287.188 649.513, 289.250 649.728 M 350.776 649.733 C 353.128 649.945, 356.728 649.942, 358.776 649.727 C 360.824 649.512, 358.900 649.339, 354.500 649.343 C 350.100 649.346, 348.424 649.522, 350.776 649.733 M 656.776 649.733 C 659.128 649.945, 662.728 649.942, 664.776 649.727 C 666.824 649.512, 664.900 649.339, 660.500 649.343 C 656.100 649.346, 654.424 649.522, 656.776 649.733 M 710.306 649.747 C 716.800 649.922, 727.150 649.921, 733.306 649.746 C 739.463 649.571, 734.150 649.428, 721.500 649.429 C 708.850 649.429, 703.813 649.573, 710.306 649.747 M 230.420 669.500 C 230.419 680.500, 230.565 685.136, 230.745 679.803 C 230.924 674.470, 230.925 665.470, 230.746 659.803 C 230.568 654.136, 230.421 658.500, 230.420 669.500 M 635.420 669.500 C 635.419 680.500, 635.565 685.136, 635.745 679.803 C 635.924 674.470, 635.925 665.470, 635.746 659.803 C 635.568 654.136, 635.421 658.500, 635.420 669.500 M 792.420 669.500 C 792.419 680.500, 792.565 685.136, 792.745 679.803 C 792.924 674.470, 792.925 665.470, 792.746 659.803 C 792.568 654.136, 792.421 658.500, 792.420 669.500 M 563.728 727.722 C 565.503 727.943, 568.653 727.946, 570.728 727.730 C 572.802 727.513, 571.350 727.333, 567.500 727.328 C 563.650 727.324, 561.952 727.501, 563.728 727.722 M 435.500 740.030 C 440.570 740.836, 454.681 741.302, 453.917 740.638 C 453.688 740.439, 448.325 740.042, 442 739.755 C 434.608 739.421, 432.286 739.519, 435.500 740.030 M 471 742.119 C 478.461 742.735, 542.316 743.013, 538.500 742.413 C 537.400 742.240, 520.075 741.964, 500 741.799 C 479.925 741.635, 466.875 741.779, 471 742.119 M 704.320 832 C 704.320 835.575, 704.502 837.038, 704.723 835.250 C 704.945 833.462, 704.945 830.538, 704.723 828.750 C 704.502 826.962, 704.320 828.425, 704.320 832 M 407.768 856.725 C 409.565 856.947, 412.265 856.943, 413.768 856.715 C 415.271 856.486, 413.800 856.304, 410.500 856.310 C 407.200 856.315, 405.971 856.502, 407.768 856.725 M 404.768 873.725 C 406.565 873.947, 409.265 873.943, 410.768 873.715 C 412.271 873.486, 410.800 873.304, 407.500 873.310 C 404.200 873.315, 402.971 873.502, 404.768 873.725 M 429.768 874.725 C 431.565 874.947, 434.265 874.943, 435.768 874.715 C 437.271 874.486, 435.800 874.304, 432.500 874.310 C 429.200 874.315, 427.971 874.502, 429.768 874.725 M 596.287 874.740 C 599.469 874.939, 604.419 874.937, 607.287 874.736 C 610.154 874.535, 607.550 874.372, 601.500 874.374 C 595.450 874.376, 593.104 874.541, 596.287 874.740 M 320.328 885.500 C 320.333 889.350, 320.513 890.802, 320.730 888.728 C 320.946 886.653, 320.943 883.503, 320.722 881.728 C 320.501 879.952, 320.324 881.650, 320.328 885.500 M 490 889 C 483.500 889.655, 483.500 889.655, 489 889.719 C 492.025 889.754, 497.200 889.448, 500.500 889.038 C 506.500 888.294, 506.500 888.294, 501.500 888.320 C 498.750 888.334, 493.575 888.640, 490 889 M 702.175 896.050 C 702.079 898.553, 701.441 901.253, 700.757 902.050 C 700.038 902.889, 700.276 902.826, 701.322 901.899 C 702.690 900.688, 703.035 899.229, 702.740 895.899 C 702.349 891.500, 702.349 891.500, 702.175 896.050 M 417.784 916.738 C 420.689 916.941, 425.189 916.939, 427.784 916.734 C 430.378 916.528, 428 916.363, 422.500 916.365 C 417 916.368, 414.878 916.536, 417.784 916.738 M 593.287 916.740 C 596.469 916.939, 601.419 916.937, 604.287 916.736 C 607.154 916.535, 604.550 916.372, 598.500 916.374 C 592.450 916.376, 590.104 916.541, 593.287 916.740" stroke="none" fill="#8d8c88" fill-rule="evenodd"/><path d="M 483 98 C 483 115, 483 115, 486.500 115 C 490 115, 490 115, 490 121.500 C 490 128, 490 128, 481.500 128 C 473 128, 473 128, 473 122.500 C 473 117, 473 117, 463.625 117 C 446.427 117, 448 114.168, 448 145.125 C 448 172, 448 172, 458.250 171.986 C 472.474 171.967, 473 171.768, 473 166.383 C 473 162, 473 162, 481.500 162 C 490 162, 490 162, 490 170 C 490 178, 490 178, 484.140 178 C 478.817 178, 474.226 179.826, 470.123 183.576 C 469.177 184.441, 468.381 191.998, 469.111 193.179 C 469.740 194.196, 468.216 194.765, 462.479 195.653 C 449.741 197.626, 443.004 202.311, 442.998 209.200 C 442.996 211.494, 443.031 211.499, 455.498 211.193 C 466.870 210.913, 469.796 210.228, 467 208.500 C 464.966 207.243, 466.027 203.155, 469.047 200.614 C 474.769 195.799, 480.443 194.831, 505.846 194.336 C 520.362 194.053, 528.971 194.238, 528.608 194.826 C 528.287 195.345, 523.856 196.772, 518.762 197.996 C 507.177 200.780, 497.758 204.061, 490.288 207.917 C 484.500 210.904, 484.500 210.904, 528.250 211.152 C 552.313 211.288, 573.688 211.423, 575.750 211.450 C 579.378 211.498, 579.495 211.391, 579.342 208.150 C 579.029 201.542, 572.191 197.321, 558.750 195.438 C 554 194.773, 554 194.773, 554 190.109 C 554 182.027, 550.311 178.841, 540 178.019 C 533.500 177.500, 533.500 177.500, 533.208 169.750 C 532.916 162, 532.916 162, 541.458 162 C 550 162, 550 162, 550.004 166.750 C 550.008 171.500, 550.008 171.500, 562.006 171.500 C 574.004 171.500, 574.004 171.500, 574.543 168.500 C 574.840 166.850, 574.951 154.700, 574.791 141.500 C 574.500 117.500, 574.500 117.500, 564 117.208 C 549.102 116.795, 549 116.838, 549 123.559 C 549 129.081, 549 129.081, 540.750 128.790 C 532.500 128.500, 532.500 128.500, 532.204 121.750 C 531.909 115, 531.909 115, 535.454 115 C 539 115, 539 115, 539 98 C 539 81, 539 81, 511 81 C 483 81, 483 81, 483 98 M 428 215.687 C 412.627 218.237, 395.753 224.660, 392.600 229.161 C 389.250 233.943, 391.082 241.196, 397.863 250 C 399.345 251.925, 401.285 254.625, 402.173 256 C 403.061 257.375, 405.178 260.036, 406.878 261.912 C 408.578 263.789, 410.231 266.152, 410.552 267.162 C 410.872 268.173, 411.554 269, 412.067 269 C 412.580 269, 413 269.637, 413 270.417 C 413 271.196, 413.353 271.983, 413.785 272.167 C 415.096 272.723, 426.770 292.223, 431.127 301.133 C 435.404 309.880, 440.689 324.896, 441.623 330.958 C 441.924 332.906, 442.489 336.075, 442.879 338 C 443.589 341.500, 443.589 341.500, 511.295 341.776 C 579 342.051, 579 342.051, 579 339.026 C 579 335.262, 578.937 335.671, 580.119 331.768 C 581.259 328.006, 581.806 325.913, 582.477 322.750 C 583.736 316.812, 595.272 292.184, 600.844 283.541 C 602.276 281.318, 604.030 278.422, 604.741 277.104 C 605.452 275.786, 608.163 271.793, 610.767 268.231 C 613.370 264.669, 616.175 260.742, 617 259.504 C 620.313 254.531, 625.406 247.471, 626.021 247 C 626.379 246.725, 627.920 244.353, 629.444 241.729 C 632.926 235.733, 632.379 231.093, 627.673 226.689 C 617.675 217.335, 585.104 212.536, 558 216.423 C 541.273 218.823, 519.673 223.499, 507 227.464 C 502.875 228.755, 495.900 230.785, 491.500 231.976 C 487.100 233.167, 479.900 235.222, 475.500 236.542 C 471.100 237.863, 466.150 239.172, 464.500 239.451 C 445.733 242.628, 440.990 243.168, 434.665 242.848 C 425.975 242.409, 420.437 239.427, 419.761 234.823 C 419.177 230.843, 423.719 224.169, 429.849 220 C 432.680 218.075, 434.997 216.162, 434.998 215.750 C 435 214.980, 432.406 214.956, 428 215.687 M 251.018 243.784 C 248.160 246.099, 247.860 252.083, 250.458 254.954 C 254.452 259.367, 264 255.919, 264 250.062 C 264 248.526, 263.067 246.084, 261.927 244.635 C 259.434 241.466, 254.369 241.071, 251.018 243.784 M 282.514 244.395 C 276.143 250.766, 283.042 260.257, 291.083 256.181 C 295.418 253.983, 296.637 249.781, 294.171 245.540 C 291.716 241.321, 286.136 240.773, 282.514 244.395 M 314.189 244.039 C 311.130 246.889, 311.149 253.290, 314.223 255.443 C 319.573 259.191, 327 255.663, 327 249.374 C 327 242.884, 319.003 239.554, 314.189 244.039 M 346.073 244.635 C 342.255 249.488, 344.004 255.280, 349.786 256.939 C 355.813 258.667, 361.303 252.558, 359.050 246.630 C 357.070 241.424, 349.512 240.262, 346.073 244.635 M 668.039 244.189 C 663.754 248.788, 667.162 257.030, 673.323 256.968 C 679.352 256.908, 682.802 251.813, 680.508 246.356 C 678.445 241.450, 671.685 240.275, 668.039 244.189 M 700.073 244.635 C 698.933 246.084, 698 248.273, 698 249.500 C 698 253.239, 701.702 257, 705.381 257 C 709.939 257, 712.046 255.075, 712.682 250.331 C 713.126 247.027, 712.822 245.822, 711.116 244.116 C 708.022 241.022, 702.718 241.272, 700.073 244.635 M 732.665 243.454 C 731.656 244.219, 730.606 246.567, 730.332 248.672 C 729.680 253.671, 732.545 257, 737.500 257 C 742.407 257, 745.319 253.666, 744.683 248.777 C 744.416 246.730, 743.510 244.367, 742.670 243.527 C 740.776 241.633, 735.122 241.592, 732.665 243.454 M 764.736 243.250 C 763.831 243.938, 762.610 245.792, 762.024 247.371 C 761.163 249.690, 761.308 250.844, 762.778 253.371 C 764.279 255.951, 765.316 256.553, 768.686 256.802 C 772.136 257.057, 773.108 256.678, 774.919 254.376 C 778.859 249.367, 775.655 242, 769.536 242 C 767.802 242, 765.642 242.563, 764.736 243.250 M 230.976 304.250 C 230.457 309.705, 230.032 338.991, 230.448 340.649 C 231.038 343, 231.038 343, 309.019 343 C 387 343, 387 343, 387 323.500 C 387 304, 387 304, 309 304 C 266.100 304, 230.989 304.113, 230.976 304.250 M 636 323.500 C 636 343, 636 343, 714 343 C 792 343, 792 343, 792 323.500 C 792 304, 792 304, 714 304 C 636 304, 636 304, 636 323.500 M 186.939 308.643 C 178.243 314.044, 177.597 325.992, 185.626 332.936 C 189.318 336.129, 197.305 336.928, 201.881 334.562 C 210.931 329.882, 211.497 314.322, 202.810 309.026 C 198.752 306.551, 190.624 306.355, 186.939 308.643 M 819.886 308.999 C 815.110 311.522, 812.625 316.743, 813.225 322.989 C 813.794 328.915, 816.380 332.510, 821.522 334.523 C 826.632 336.524, 832.006 335.936, 836.469 332.890 C 844.338 327.518, 843.903 313.960, 835.701 308.960 C 831.608 306.463, 824.650 306.481, 819.886 308.999 M 436.837 348.913 C 426.699 352.364, 425.350 356.905, 433.098 361.500 C 439.012 365.007, 445.944 371.404, 448.475 375.689 C 450.257 378.705, 450.257 378.705, 495.519 379.234 C 520.413 379.524, 547.809 379.526, 556.398 379.237 C 572.015 378.712, 572.015 378.712, 574.017 375.473 C 576.936 370.750, 583.834 364.370, 589 361.617 C 601.374 355.022, 588.412 345.966, 568.669 347.413 C 563.732 347.775, 559.408 348.248, 559.060 348.463 C 558.711 348.678, 553.502 349.586, 547.483 350.480 C 508.875 356.212, 468.389 356.441, 453.500 351.010 C 443.625 347.408, 441.897 347.190, 436.837 348.913 M 192 361 C 192 366, 192 366, 289.500 366 C 387 366, 387 366, 387 361 C 387 356, 387 356, 289.500 356 C 192 356, 192 356, 192 361 M 636 361 C 636 366, 636 366, 733.500 366 C 831 366, 831 366, 831 361 C 831 356, 831 356, 733.500 356 C 636 356, 636 356, 636 361 M 565.500 383.657 C 554.163 385.006, 538.940 387.263, 535.996 388.031 C 528.065 390.099, 495.455 392.223, 481 391.612 C 464.013 390.894, 458.848 390.003, 454.944 387.117 C 449.956 383.429, 445.367 384.523, 439.268 390.856 C 435.904 394.349, 434.015 399.287, 434.006 404.613 C 434 407.726, 434 407.726, 454.250 408.413 C 465.387 408.791, 475.625 409.131, 477 409.169 C 478.375 409.206, 481.750 409.620, 484.500 410.088 C 487.250 410.557, 492.200 411.207, 495.500 411.533 C 498.800 411.859, 505.325 412.576, 510 413.127 C 514.675 413.677, 524.237 414.146, 531.250 414.168 C 538.263 414.191, 544 414.531, 544 414.924 C 544 415.538, 537.168 417.245, 519.466 421.052 C 511.691 422.725, 484.604 425, 472.470 425 C 451.912 425, 438.898 421.555, 434.466 414.940 C 433.238 413.108, 431.630 412.005, 430.184 412.003 C 426.642 411.998, 413.832 418.362, 410.842 421.612 C 405.160 427.787, 401.979 434.595, 401.318 442 C 400.457 451.637, 405.793 458.589, 415.500 460.480 C 417.150 460.801, 426.375 461.487, 436 462.003 C 445.625 462.519, 453.568 462.954, 453.651 462.970 C 453.735 462.987, 454.137 468.288, 454.545 474.750 C 455.362 487.689, 453.800 527.209, 451.472 552.500 C 450.662 561.300, 449.949 570.300, 449.887 572.500 C 449.787 576.041, 448.786 583.573, 447.428 591 C 447.176 592.375, 446.720 595.525, 446.414 598 C 443.820 618.968, 434.272 652.622, 424.875 673.919 C 418.102 689.269, 407.429 707.448, 401.544 713.657 C 398.057 717.335, 396.056 720.282, 396.527 721.043 C 397.154 722.058, 405.326 723.516, 417.948 724.864 C 427.217 725.855, 430.797 723.815, 437.015 714 C 441.758 706.514, 449.598 690, 448.409 690 C 448.145 690, 448.427 689.071, 449.035 687.935 C 449.643 686.799, 450.306 685.112, 450.509 684.185 C 450.712 683.258, 452.467 676.947, 454.409 670.159 C 456.351 663.372, 457.877 657.522, 457.801 657.159 C 457.726 656.797, 457.964 654.925, 458.331 653 C 458.699 651.075, 459.259 648.150, 459.576 646.500 C 463.807 624.495, 466.573 601.669, 467.513 581 C 467.800 574.675, 468.505 563.650, 469.080 556.500 C 469.654 549.350, 470.292 540.350, 470.497 536.500 C 471.050 526.150, 471.899 523.250, 475.490 519.442 C 479.905 514.761, 484.350 514.696, 488.742 519.250 C 494.379 525.094, 494.433 525.514, 494.169 562 C 493.859 604.957, 493.235 626.759, 491.922 640.500 C 491.344 646.550, 490.693 653.525, 490.476 656 C 489.252 669.937, 488.685 674.521, 486.948 684.500 C 485.895 690.550, 484.605 696.971, 484.081 698.768 C 483.557 700.566, 483.108 702.256, 483.082 702.523 C 482.731 706.187, 479.195 717.650, 476.899 722.566 C 475.855 724.802, 475 726.939, 475 727.316 C 475 728.388, 551.757 728.116, 571.639 726.973 C 593.247 725.731, 616.879 723.379, 622.226 721.939 C 626.148 720.883, 626.148 720.883, 623.377 717.192 C 621.853 715.161, 620.342 713.275, 620.020 713 C 618.221 711.465, 611.628 701.312, 607.301 693.415 C 601.035 681.978, 597.479 673.403, 591.163 654.500 C 584.374 634.184, 583.299 629.953, 577.571 601 C 572.847 577.126, 567.961 514.016, 567.989 477.250 C 567.999 464.371, 568.168 462.995, 569.750 462.943 C 587.719 462.360, 607.270 460.906, 610 459.950 C 615.479 458.031, 619.729 454.351, 621.033 450.399 C 624.019 441.353, 619.431 428.157, 610.622 420.451 C 606.954 417.242, 603.553 415.456, 597.345 413.479 C 589 410.822, 589 410.822, 589 404.565 C 589 397.352, 587.312 393.285, 582.700 389.392 C 579.066 386.325, 572.239 382.981, 570 383.172 C 569.175 383.242, 567.150 383.460, 565.500 383.657 M 189.722 393.441 C 181.289 395.853, 176.661 399.916, 172.350 408.695 C 169.500 414.500, 169.500 414.500, 169.786 493.930 C 169.957 541.429, 170.469 575.132, 171.060 577.766 C 173.173 587.195, 178.991 594.781, 186.736 598.207 C 192.531 600.771, 204.971 601.667, 212.110 600.035 C 218.595 598.552, 225.898 593.917, 228.502 589.631 C 233.231 581.848, 233.364 581.122, 233.779 560.750 C 234.181 541, 234.181 541, 222.090 541 C 210 541, 210 541, 210 555.800 C 210 565.978, 209.625 570.975, 208.800 571.800 C 207.328 573.272, 199.578 573.380, 196.934 571.965 C 195.048 570.955, 195 569.057, 195 496 C 195 422.943, 195.048 421.045, 196.934 420.035 C 199.054 418.901, 205.912 418.645, 208.418 419.607 C 209.759 420.122, 210 422.405, 210 434.607 C 210 449, 210 449, 222 449 C 234 449, 234 449, 234 430.489 C 234 413.941, 233.784 411.518, 231.960 407.638 C 229.429 402.254, 224.859 397.495, 219.553 394.719 C 214.432 392.040, 197.201 391.301, 189.722 393.441 M 242 488.349 C 242 541.341, 242.289 588.112, 242.641 592.285 C 243.283 599.871, 243.283 599.871, 256.141 599.871 C 269 599.871, 269 599.871, 269 553.935 C 269 508, 269 508, 277 508 C 285 508, 285 508, 285 552.418 C 285 576.848, 285.273 597.548, 285.607 598.418 C 286.117 599.747, 288.273 600, 299.107 600 C 312 600, 312 600, 312 496 C 312 392, 312 392, 298.500 392 C 285 392, 285 392, 285 436 C 285 480, 285 480, 277 480 C 269 480, 269 480, 269 436 C 269 392, 269 392, 255.500 392 C 242 392, 242 392, 242 488.349 M 326 496 C 326 600, 326 600, 355.981 600 C 391.034 600, 387.244 601.969, 386.790 584 C 386.500 572.500, 386.500 572.500, 369.250 572.500 C 352 572.500, 352 572.500, 352 540.250 C 352 508, 352 508, 358.250 507.991 C 361.688 507.987, 366.863 507.699, 369.750 507.352 C 375 506.721, 375 506.721, 375 493.361 C 375 480, 375 480, 363.500 480 C 352 480, 352 480, 352 449.500 C 352 419, 352 419, 369.250 419.002 C 386.500 419.003, 386.500 419.003, 386.196 405.502 C 385.892 392, 385.892 392, 355.946 392 C 326 392, 326 392, 326 496 M 635.047 496 C 635.037 600, 635.037 600, 645.019 600 C 655 600, 655 600, 655.086 559.750 C 655.166 522.113, 655.631 516.431, 657.560 529.500 C 658.131 533.366, 660.839 547.462, 661.402 549.500 C 661.554 550.050, 662.014 552.300, 662.424 554.500 C 663.178 558.544, 665.810 571.817, 666.589 575.500 C 666.821 576.600, 667.479 580.384, 668.050 583.908 C 670.472 598.847, 670.898 600, 673.995 600 C 676.864 600, 677.381 598.862, 678.529 590 C 678.795 587.948, 680.637 577.931, 683.494 563 C 684.809 556.125, 686.094 549.375, 686.349 548 C 686.604 546.625, 687.813 540.100, 689.036 533.500 C 690.259 526.900, 691.538 520.969, 691.880 520.319 C 692.221 519.669, 692.500 537.219, 692.500 559.319 C 692.500 599.500, 692.500 599.500, 703.500 599.500 C 714.500 599.500, 714.500 599.500, 714.316 582.500 C 714.214 573.150, 713.400 542.775, 712.506 515 C 711.612 487.225, 710.486 448.300, 710.003 428.500 C 709.519 408.700, 709.096 392.387, 709.062 392.250 C 709.028 392.113, 704.333 392, 698.629 392 C 688.258 392, 688.258 392, 687.584 398.250 C 687.213 401.688, 686.264 409.450, 685.475 415.500 C 684.685 421.550, 683.132 433.700, 682.022 442.500 C 680.912 451.300, 679.793 459.625, 679.536 461 C 678.608 465.955, 675.808 483.582, 675.358 487.302 C 675.105 489.392, 674.499 492.092, 674.012 493.302 C 673.218 495.274, 673.120 495.173, 673.063 492.315 C 673.029 490.564, 672.358 486.064, 671.574 482.315 C 670.790 478.567, 669.641 471.675, 669.020 467 C 668.400 462.325, 667.693 457.375, 667.450 456 C 666.784 452.226, 664.271 433.124, 662.517 418.500 C 661.660 411.350, 660.420 402.462, 659.762 398.750 C 658.566 392, 658.566 392, 646.812 392 C 635.058 392, 635.058 392, 635.047 496 M 716.331 393.581 C 715.871 394.777, 716.186 406.909, 716.983 418.750 C 716.992 418.887, 721.950 419, 728 419 C 739 419, 739 419, 739 509.500 C 739 600, 739 600, 749.375 600 C 755.081 600, 761.156 599.719, 762.875 599.375 C 766 598.750, 766 598.750, 766 508.875 C 766 419, 766 419, 776.500 419 C 787 419, 787 419, 787 414.654 C 787 412.263, 786.708 406.188, 786.350 401.154 C 785.701 392, 785.701 392, 751.319 392 C 720.901 392, 716.867 392.182, 716.331 393.581 M 792.820 489.250 C 792.644 542.737, 792.651 589.544, 792.836 593.265 C 793.172 600.030, 793.172 600.030, 822.336 599.765 C 851.500 599.500, 851.500 599.500, 851.500 586 C 851.500 572.500, 851.500 572.500, 835.250 572.225 C 819 571.950, 819 571.950, 819 539.475 C 819 507, 819 507, 831 507 C 843 507, 843 507, 843 493.500 C 843 480, 843 480, 831 480 C 819 480, 819 480, 819 449.500 C 819 419, 819 419, 835.500 419 C 852 419, 852 419, 852 405.500 C 852 392, 852 392, 822.570 392 C 793.140 392, 793.140 392, 792.820 489.250 M 425.643 435.028 C 421.997 436.121, 419 438.824, 419 441.020 C 419 444.138, 422.826 447.690, 427.712 449.109 C 431.229 450.131, 438.739 450.484, 456 450.439 C 479.523 450.377, 489.352 449.414, 507 445.439 C 514.213 443.814, 529.001 438.825, 528.998 438.017 C 528.996 437.733, 515.834 437.364, 499.748 437.197 C 483.661 437.030, 462.400 436.246, 452.500 435.453 C 432.393 433.844, 429.734 433.802, 425.643 435.028 M 192.515 626.818 C 192.232 627.102, 192.001 629.396, 192.002 631.917 C 192.003 636.500, 192.003 636.500, 274.252 636.888 C 319.488 637.102, 363.363 636.939, 371.750 636.525 C 387 635.774, 387 635.774, 387 631.515 C 387 627.257, 387 627.257, 375.250 626.623 C 361.478 625.880, 193.274 626.060, 192.515 626.818 M 710.250 626.682 C 636 627.013, 636 627.013, 636 631.506 C 636 636, 636 636, 733.500 636 C 831 636, 831 636, 831 631.500 C 831 627, 831 627, 818.156 627 C 811.091 627, 800.629 626.854, 794.906 626.676 C 789.183 626.497, 751.087 626.500, 710.250 626.682 M 231 669.500 C 231 689, 231 689, 309 689 C 387 689, 387 689, 387 669.500 C 387 650, 387 650, 309 650 C 231 650, 231 650, 231 669.500 M 636 669.500 C 636 689, 636 689, 714 689 C 792 689, 792 689, 792 669.500 C 792 650, 792 650, 714 650 C 636 650, 636 650, 636 669.500 M 189.643 658.009 C 178.362 661.465, 176.534 677.534, 186.640 684.401 C 193.806 689.271, 203.905 686.824, 207.489 679.349 C 210.634 672.790, 208.565 662.910, 203.326 659.478 C 200.335 657.518, 193.604 656.795, 189.643 658.009 M 820.396 659.033 C 813.636 662.379, 811.106 671.368, 814.856 678.717 C 817.521 683.941, 821.200 686.231, 827.280 686.450 C 843.322 687.027, 848.098 664.684, 833.282 658.371 C 828.821 656.470, 825.197 656.656, 820.396 659.033 M 373.838 728.133 C 372.356 728.676, 370.473 730.591, 369.588 732.455 C 366.383 739.210, 368.021 745.035, 375.900 754.905 C 379.152 758.978, 382.064 763.568, 382.371 765.106 C 383.257 769.537, 381.184 774.167, 376.310 778.643 C 371.965 782.632, 369.689 783.747, 351 791.034 C 346.325 792.857, 341.306 795.170, 339.846 796.174 C 338.386 797.178, 336.790 798, 336.300 798 C 334.367 798, 324.811 808.688, 322.484 813.452 C 319.153 820.271, 317.652 829.071, 318.408 837.353 C 319.025 844.116, 322.418 854, 324.123 854 C 324.605 854, 325 854.600, 325 855.333 C 325 857.780, 332.200 863.906, 336.879 865.441 C 345.675 868.326, 390.051 872.587, 426.778 874.074 C 462.588 875.523, 613.008 874.758, 632 873.029 C 642.504 872.073, 659.604 869.841, 675 867.415 C 682.925 866.166, 694 861.858, 694 860.024 C 694 859.725, 695.085 858.309, 696.412 856.879 C 697.738 855.448, 699.876 852.078, 701.162 849.389 C 703.212 845.102, 703.500 843.019, 703.500 832.477 C 703.500 820.978, 703.361 820.171, 700.310 813.977 C 695.811 804.844, 686.678 796.212, 679.644 794.447 C 678.179 794.079, 676.749 793.403, 676.466 792.945 C 676.183 792.487, 671.541 790.733, 666.151 789.047 C 649.981 783.991, 640 775.831, 640 767.667 C 640 764.438, 642.239 759.208, 644.830 756.385 C 648.481 752.406, 653.045 745.329, 653.914 742.300 C 655.001 738.511, 653.830 732.575, 651.485 729.984 C 648.416 726.593, 644.523 726.553, 636.696 729.831 C 628.972 733.067, 619.577 735.295, 606 737.110 C 601.325 737.736, 596.375 738.425, 595 738.642 C 590.953 739.282, 583.859 739.871, 559.398 741.599 C 521.186 744.299, 437.218 742.005, 414.500 737.641 C 413.400 737.430, 410.250 736.945, 407.500 736.564 C 393.798 734.665, 386.936 732.658, 383.094 729.426 C 380.023 726.842, 378.098 726.573, 373.838 728.133 M 251.617 749.538 C 249.229 751.284, 247.919 755.656, 248.962 758.399 C 250.443 762.296, 253.544 763.892, 257.778 762.937 C 262.180 761.945, 264 759.734, 264 755.381 C 264 749.650, 256.381 746.055, 251.617 749.538 M 282.646 750.452 C 279.076 753.761, 279.152 757.814, 282.853 761.359 C 290.088 768.291, 299.768 757.704, 292.889 750.382 C 290 747.307, 286.010 747.334, 282.646 750.452 M 314.583 750.250 C 310.663 753.737, 310.486 757.640, 314.084 761.238 C 316.576 763.730, 317.610 764.128, 320.224 763.605 C 324.856 762.679, 327 760.279, 327 756.019 C 327 748.970, 319.788 745.619, 314.583 750.250 M 702.736 748.692 C 700.294 749.329, 697.743 754.595, 698.567 757.300 C 699.751 761.191, 702.110 763, 706 763 C 710.604 763, 713.340 760.251, 713.212 755.753 C 713.061 750.431, 708.320 747.236, 702.736 748.692 M 732.452 750.646 C 729.375 753.966, 729.338 757.118, 732.333 760.601 C 736.996 766.021, 745 763.062, 745 755.918 C 745 748.823, 737.185 745.540, 732.452 750.646 M 765.352 748.993 C 762.698 750.064, 762.015 751.129, 761.531 754.952 C 761.248 757.191, 761.868 758.718, 763.977 760.976 C 767.467 764.712, 770.541 764.813, 774.195 761.313 C 778.443 757.243, 777.886 752.027, 772.928 749.463 C 769.755 747.822, 768.456 747.741, 765.352 748.993 M 412.500 779.999 C 396.793 783.340, 382.618 788.838, 367.136 797.597 C 359.382 801.984, 349.117 812.174, 345.916 818.663 C 342.583 825.420, 342.595 834.181, 345.943 839.016 C 349.146 843.642, 350.840 845.243, 355.943 848.464 C 366.926 855.397, 378.673 857.433, 403.497 856.705 C 423.316 856.124, 432.140 854.387, 448.300 847.885 C 459.712 843.294, 463.292 841.098, 471.522 833.645 C 480.326 825.671, 484.295 818.346, 484.335 810 C 484.366 803.314, 483.991 801.669, 481.226 796.357 C 478.448 791.022, 472.747 786.186, 464.263 781.969 C 457.500 778.607, 457.500 778.607, 439.500 778.346 C 424.844 778.134, 419.828 778.441, 412.500 779.999 M 325.383 873.338 C 321.267 878.500, 321.267 878.500, 320.583 889.694 C 319.914 900.654, 319.948 900.920, 322.219 902.408 C 328.351 906.425, 370.757 913.204, 400.500 914.922 C 410.950 915.525, 422.650 916.277, 426.500 916.591 C 440.631 917.746, 572.306 918.178, 583.500 917.106 C 589.550 916.527, 601.250 915.808, 609.500 915.508 C 638.357 914.459, 677.799 909.220, 695.877 904.035 C 701.672 902.373, 702 901.672, 702 890.943 C 702 879.494, 701.529 877.932, 696.365 872.240 C 692.500 867.980, 692.500 867.980, 686 869.577 C 682.425 870.456, 678.150 871.385, 676.500 871.643 C 674.850 871.901, 669.675 872.748, 665 873.525 C 660.325 874.302, 653.800 875.173, 650.500 875.460 C 647.200 875.747, 643.375 876.209, 642 876.486 C 639.306 877.028, 638.148 877.145, 612.500 879.473 C 603.150 880.322, 591 881.457, 585.500 881.996 C 562.068 884.291, 542.474 885.979, 527.500 886.992 C 518.700 887.587, 506.775 888.483, 501 888.982 C 478.867 890.895, 431.304 892.242, 403.500 891.743 C 377.801 891.282, 373.646 890.978, 367 889.075 C 356.703 886.126, 344.562 880.166, 338.120 874.899 C 328.985 867.430, 329.997 867.554, 325.383 873.338" stroke="none" fill="#050505" fill-rule="evenodd"/></svg>